<svg xmlns="http://www.w3.org/2000/svg" viewBox="0 0 500 500"><g id="freepik--Plant--inject-178"><g id="freepik--Plants--inject-178"><path d="M419.2,399.72a.51.51,0,0,1-.24,0l-6.71-2.57a.59.59,0,0,1-.37-.44c-.05-.19-4.26-19.35,10.93-43.07,10.84-16.92,26.22-27,35-23a10.51,10.51,0,0,1,6.36,8.21,12.29,12.29,0,0,1-4.79,10.91c-.78.64-2,1.49-3.51,2.58-9.44,6.7-31.55,22.39-36.14,46.9a.63.63,0,0,1-.29.42A.59.59,0,0,1,419.2,399.72ZM413,396.07l5.74,2.21c5-24.59,27-40.25,36.49-47,1.51-1.07,2.7-1.92,3.45-2.53A11.08,11.08,0,0,0,463,339a9.17,9.17,0,0,0-5.67-7.23c-8.27-3.8-23,6.09-33.53,22.53C410,375.87,412.51,393.51,413,396.07Z" style="fill:#4F46E5"></path><path d="M415.39,398.26h-.08a.62.62,0,0,1-.55-.67c2.28-29,24.32-54.7,37.91-59a.59.59,0,0,1,.75.41.62.62,0,0,1-.39.77C439.59,344,418.11,370.24,416,397.7A.6.6,0,0,1,415.39,398.26Z" style="fill:#4F46E5"></path><path d="M412.49,397.15a.58.58,0,0,1-.26,0l-4.53-2a.6.6,0,0,1-.36-.44c0-.28-5.62-28.79,4-65.33,4.91-18.61,17.39-35.93,29.66-41.18,5.9-2.53,11.44-2.32,16.46.61,2.84,1.65,4.51,3.82,5,6.45,1.25,7.24-6.83,16.95-15.39,27.23-6,7.19-12.17,14.63-15.33,21.44a.59.59,0,0,1-.8.29.63.63,0,0,1-.28-.82c3.22-7,9.47-14.47,15.51-21.72,8.36-10.05,16.27-19.54,15.12-26.22-.39-2.26-1.82-4.09-4.37-5.58-4.69-2.73-9.88-2.92-15.42-.54-12,5.12-24.14,22.1-29,40.38-9,34.18-4.64,61.22-4.06,64.43l4.23,1.83a.63.63,0,0,1,.32.81A.59.59,0,0,1,412.49,397.15Z" style="fill:#4F46E5"></path><path d="M413,379.44h0a.61.61,0,0,1-.58-.64c.79-45.09,28.38-78.26,36.12-83.63a.59.59,0,0,1,.83.17.64.64,0,0,1-.16.86c-7.63,5.29-34.82,38-35.6,82.63A.6.6,0,0,1,413,379.44Z" style="fill:#4F46E5"></path></g></g><g id="freepik--Shadow--inject-178"><path id="freepik--shadow--inject-178" d="M258.05,365.41c-37.3,21.54-37.3,56.46,0,78s97.79,21.53,135.1,0,37.3-56.46,0-78S295.36,343.87,258.05,365.41Z" style="fill:#e0e0e0"></path></g><g id="freepik--Character--inject-178"><g id="freepik--character--inject-178"><g id="freepik--Bottom--inject-178"><path d="M286.27,434.06s-27.66-10-36.67-24.58c.83-16.2,2.39-45.29,2.63-45.09l52.13,5.39-11,45.71Z" style="fill:#37474f"></path><path d="M286.27,427.61v6.45c19.37,7.94,55.46,8.1,78.88.45,15.9-5.19,29.72-14,34.45-19.43l-1.78-45.29h-141c0,6.91,4.26,27.23,9.14,35.69S286.27,427.61,286.27,427.61Z" style="fill:#455a64"></path></g><g id="freepik--Top--inject-178"><g id="freepik--Arm--inject-178"><path d="M269,195.93c-13.75,0-22,2.52-34,2.57-30.83.13-47.87,1.93-47.87,1.93s-40,11.31-37.17,21.13c3.68,12.89,28.32,21.59,60.51,26.27,33.25,4.83,53.83,7.44,53.83,7.44Z" style="fill:#37474f"></path><path d="M277.06,111.38c1.09-4.4,2.23-8.78,3.32-13.18a25.57,25.57,0,0,0,1-5.61,8.82,8.82,0,0,0-1.44-5.42c-.79-1.1-2.41-2-3.45-1.09a3,3,0,0,0-.7,1q-5.22,10-10.43,20a53.1,53.1,0,0,1-3.68,6.32c-1.37,1.94-3.07,3.76-3.92,6s-4.12,8.31-5.22,10.43c-2.35,4.55-6.23,9.7-14.33,15.27-12.67,8.7-32.42,15.18-62.82,31-10,5.18-17.58,16.68-22.37,26.76-8.3,17.45-2.43,26.26,10.51,26.12,10.33-.12,24.48-2.85,39.19-13.58C227,197.64,242.31,177.22,255,169.12c3.14-2.31,8.67-3.65,10.64-5.32,3.86-3.28,5.61-6.78,6.54-11.75s.61-10.09.83-15.13c.19-4.12.08-8,.94-12.06C274.88,120.35,276,115.86,277.06,111.38Z" style="fill:#ffa8a7"></path><path d="M264.41,108.84h0l.93-1.77,10.43-20a3,3,0,0,1,.7-1c1-.87,2.66,0,3.45,1.09a8.82,8.82,0,0,1,1.44,5.42,25.57,25.57,0,0,1-1,5.61c-1.09,4.4-2.23,8.78-3.32,13.18s-2.18,9-3.13,13.48c-.86,4.07-.75,7.94-.94,12.06-.22,5,.1,10.15-.83,15.13s-2.68,8.47-6.54,11.75a21.81,21.81,0,0,1-5,2.47c-4.08-8.23-1.93-21.8-.17-34C261.91,122.08,258.45,117.67,264.41,108.84Z" style="fill:#f28f8f"></path></g><g id="freepik--Chest--inject-178"><path d="M252.24,258.07c.27-43.92,19.45-56.38,27.05-59.72l31-6.9c9.54.85,50.34,12.12,61.57,14.64,7.23,1.63,19.09,5.81,23.22,28.78,3.36,18.66,3.85,26.19,1.65,60.11a460.41,460.41,0,0,0,2.2,89.54c-49,16.13-103.15,22.7-140.39-4.6.73-6.18-4.12-57.45-4.76-72.59S252.16,270,252.24,258.07Z" style="fill:#fafafa"></path><path d="M296.92,197c-4.06,2.14-22.51,20-24.9,49.58-4.38,54.48-4.29,102.68-4.29,149.82-6.49-3.16-17.11-10.67-20.25-19.17,1-18.57,1-56.79,1.3-69.85.47-18.6,1-48.77,2.13-60.73,1.47-15.91,4.93-39.56,18-50.67,14.07-1.42,27.41-2.52,27.41-2.52Z" style="fill:#4F46E5"></path><g id="freepik--Head--inject-178"><path d="M336.76,178.26c1.78-10.64,12.33-21.76,17.08-31,4.57-9,7.29-15.9,6.74-24.3-.32-5-3.47-11.72-7.17-13.12,4.23-18.52-9.68-27.07-17.06-28.81a78.73,78.73,0,0,1-10.21-2.81c-4-1.67-4.93-4.89-8.17-7.63-5.57-4.71-15-4.79-18.5,2.37-3.71-4.78-8.74-4.65-14.54-3.16-5.53,1.43-8.14,6.12-7.56,11.22-7.77-4.32-14.88,1.18-15.58,5.74-.52,3.37.2,6.21-2,9.23-2.47,3.4-7.16,3.36-8.59.62-.79,4.78,1.08,8.42,6.27,8.14a10.87,10.87,0,0,0-1.33,9.13,9.9,9.9,0,0,0,9,6.81c.55,2.63.67,5,2.33,7.29a17.22,17.22,0,0,0,6.11,5.49c7.86,3.72,16.55,4.91,25,6.64l10,2.06c.59.11,3.62.29,4,.81Z" style="fill:#263238"></path><path d="M349.61,164.47c-7.46,4.49-10.9-.37-10.9-.37l.85,38.84s-16,20.66-44.65,22.09c-2.06-6.27-2-17.3-.45-20.74l-.34-15.6a101.55,101.55,0,0,1-12.65-.53c-8.34-1.12-15.4-7.7-17.81-16.72-2.51-9.43-3.23-24.86-1.21-36.18a31.4,31.4,0,0,0,.43-8.76c-.83-7.75.56-12.27,2.54-18.79,9.16-7.41,35.12-9,54.94,3-4.22,10.1-1.53,20.36,7.05,24.82-.39,3.18-.77,11.22,4.46,11,3.77-.11,4-4.84,7.86-9s12.87-5.31,16.38.81C361,146.91,357.79,159.56,349.61,164.47Z" style="fill:#ffa8a7"></path><path d="M294.12,188.69c13.23-1.6,23.27-3.06,30.14-12.66,4.3-6,7.93-15.7,7.93-15.7S330.87,172,326.57,180c-3.31,6.13-11.48,11.25-32.21,13.09Z" style="fill:#f28f8f"></path><path d="M299.16,136.34a4.1,4.1,0,1,0,4-4.33A4.15,4.15,0,0,0,299.16,136.34Z" style="fill:#263238"></path><path d="M309.34,125.62l-7.95-6.07a5.26,5.26,0,0,0,1,7.2A4.88,4.88,0,0,0,309.34,125.62Z" style="fill:#263238"></path><path d="M276.91,118.48l-7.78,6.41a4.84,4.84,0,0,0,7,.84A5.3,5.3,0,0,0,276.91,118.48Z" style="fill:#263238"></path><path d="M269,135.46a4.1,4.1,0,1,0,4-4.34A4.16,4.16,0,0,0,269,135.46Z" style="fill:#263238"></path><path d="M276,148.56l13,5.71,3.93-25.4C288,127.16,281.86,138.85,276,148.56Z" style="fill:#f28f8f"></path><path d="M288.68,168.2c2.12,1.4,3.41-.72,7.12-2.26s7.21.29,6.71-2.79c-.52-3.26-6.25-5.14-9.95-3.6S286.27,166.6,288.68,168.2Z" style="fill:#b16668"></path><path d="M295.51,165.63a9.4,9.4,0,0,0-1,.52,4.61,4.61,0,0,1,3.93-5,3.78,3.78,0,0,1,3.18.75,3.54,3.54,0,0,1,.48,1C302.87,165.9,299.22,164.09,295.51,165.63Z" style="fill:#f28f8f"></path></g><path d="M391.48,209.86l-21.69-13.93-30.42-1.73s-8,18.11-8.51,80.11c-.55,67.44,1.26,139,1.26,139s51.48-.11,70.8-29c0,0-2.17-20.55-3.29-54.52-.66-20.07-1.56-33.52.61-50.7C404.29,247.16,401,226.85,391.48,209.86Z" style="fill:#4F46E5"></path><path d="M333.33,225.62l.18-29.14s4.91-5.66,5.71-8.93l-.11-5.15s2.63-.05,3,3.6.62,9.61.62,9.61Z" style="fill:#37474f"></path><path d="M278.08,222l3.44-24.38s6-6.49,9.7-8.91h2.9l.23,10.33A87.3,87.3,0,0,0,278.08,222Z" style="fill:#37474f"></path><path d="M281.7,117.36a5,5,0,0,0-1-1.3,3.9,3.9,0,0,0-2.89-1.11c-.48,0-.19.74.16.79s.48.11.71.17h0s0,0,0,0l.15.06.13.06.06,0c.17.09.33.19.5.3l0,0s0,0,0,0l.13.1.22.21.07.07.07.08a2,2,0,0,1,.18.23l.16.23.05.09.06.12.12.27.06.15s.05.15,0,.09l0,.09a.83.83,0,0,0,0,.15,4,4,0,0,0,.18.68.84.84,0,0,0,.29.33c.11.12.32.27.46.14C282.38,118.91,282,118,281.7,117.36Z" style="fill:#f28f8f"></path><path d="M300.6,116.24a3.39,3.39,0,0,0-1.36,1,7.36,7.36,0,0,0-.9,1.18,7,7,0,0,0-.66,1.34,3.52,3.52,0,0,0-.21.77,2.3,2.3,0,0,0,0,.37,2.09,2.09,0,0,0,0,.25,2.35,2.35,0,0,0,.14.45c.06.23.48.6.67.28a3.77,3.77,0,0,0,.28-.48c0-.14.11-.27.16-.41s.15-.45.24-.67a7.54,7.54,0,0,1,.57-1.22,7.79,7.79,0,0,1,.76-1,6.07,6.07,0,0,0,1-1.14C301.47,116.52,300.94,116.14,300.6,116.24Z" style="fill:#f28f8f"></path></g><g id="freepik--arm--inject-178"><path d="M369.79,195.93c25.86-.31,34.81,2.74,54.34,8.08,9.26,2.53,36.86,9.13,36.86,9.13l25.29,28.05L479.92,256c-8.83,4.87-32.8,1.75-59,4.67-10.46,1.17-16.85,5.16-20.05,12.6-1.1,2.57-18.69,4.72-27-16C366.35,238.5,364.8,214.93,369.79,195.93Z" style="fill:#37474f"></path><path d="M381.11,151.41c-1-5.35-.17-12.88-.83-18s-3.52-13.1-4-19.57-1.39-7.12-3.86-6.58c-2,.44-4.69,4.82-3.71,11.69C369.39,124,373.53,147.88,381.11,151.41Z" style="fill:#f28f8f"></path><path d="M366.5,111.44c1.71,3.57,4.73,7,6.26,10.66,1.61,3.81,1.46,5.64,2.84,13.1,1.08,5.81,1,11,7.91,18,12.28,12.46,56.2,29.84,82.58,51.26,10.07,8.16,15.64,15.63,19.14,28,4.61,16.32-1.85,25.35-11.73,24.73-11.9-.75-32.75-6.8-47.77-21.47-24.84-24.26-48.38-48.31-61.5-59.65-3.2-3.15-7.52-6.87-9.49-9.1-3.69-4.17-5.17-10.34-5.72-15.88-.92-9.17-4.6-16.16-4.29-20.33-.68-3.93-3-10-5.05-16.29-1.19-3.57-2.49-6.66-1-8.48a5.24,5.24,0,0,1,1.2-.9s-.13-.47-.16-.67a19.59,19.59,0,0,1-.58-4,5.24,5.24,0,0,1,1.06-3.66,3.28,3.28,0,0,1,1.13-.78s-.13-.36-.28-.84a9.46,9.46,0,0,1-.42-4,5,5,0,0,1,1.95-3.47,3.31,3.31,0,0,1,3.82,0,5.57,5.57,0,0,1,1,1.15l2.28,3.12c1.6-1.23,2.64-.43,4.06.79,1.74,1.5,3.21,3.28,4.8,4.92a13.91,13.91,0,0,1,3.39,4.84C363.44,105.43,365.05,108.42,366.5,111.44Z" style="fill:#ffa8a7"></path><path d="M354.74,167c-4.54-4.63-5.74-11.48-6.4-17.64s-3.7-12.21-3.61-18.57a17,17,0,0,0,.88,4.63c1.41,4.54,3,9,3.64,13.81.61,6.22,1.57,12.67,5.49,17.77Z" style="fill:#b16668"></path><path d="M349.73,91.84c1.89,2.38,6.22,7.58,8,10,2.51,3.45,3.41,7.87,4.92,11.82l1.3,4a6.8,6.8,0,0,0,.75,1.92,9.58,9.58,0,0,0,1.6,1.33,7.6,7.6,0,0,1-1.79-1.18c-.89-1.15-1.91-4.52-2.53-5.87-1.29-3.28-2.46-6.62-3.84-9.85-2.53-4-5.94-8-8.37-12.16Z" style="fill:#b16668"></path><path d="M341.36,96a3.12,3.12,0,0,1,2.11-.2c.74.22,1.19,1,1.56,1.49.8,1.13,1.66,2.25,2.5,3.37a29.31,29.31,0,0,1,4.36,7.28c1.81,4.57,3.79,9.13,4.87,13.94a6,6,0,0,1,.18,2.1,14.23,14.23,0,0,0-1.11-4c-2.7-6.44-4.73-13.18-8.88-18.89-.77-1.17-1.56-2.33-2.31-3.53-.35-.65-.63-1.24-1.26-1.51a3.31,3.31,0,0,0-2,0Z" style="fill:#b16668"></path><path d="M339.91,105.1c2.27-.75,3.38,2.32,4.35,3.82,2.63,4.45,4.06,9.46,5.61,14.36a7,7,0,0,1,.11,3.11c.1-2.1-1-3.88-1.71-5.81s-1.47-3.83-2.2-5.75-1.63-3.73-2.45-5.59c-.85-1.51-1.52-4.48-3.71-4.14Z" style="fill:#b16668"></path></g></g></g></g><g id="freepik--speech-bubble-4--inject-178"><g id="freepik--speech-bubble--inject-178"><path id="freepik--speech-bubble--inject-178" d="M46.66,294.1c-2.51-3-7.24-4.12-12.36-3,4.28-6.35,17.24-8.38,24.58-3.43a51.71,51.71,0,0,1,17-2.83c23.76,0,43,15.55,43,34.73s-19.26,34.72-43,34.72-43-15.54-43-34.72C32.88,309.5,38.19,300.44,46.66,294.1Z" style="fill:#f5f5f5"></path><path d="M86.45,303.29,75.9,313.84,65.35,303.29A4.05,4.05,0,1,0,59.62,309l10.55,10.55L59.62,330.12a4.05,4.05,0,0,0,5.73,5.73L75.9,325.3l10.55,10.55a4.05,4.05,0,0,0,5.73-5.73L81.63,319.57,92.18,309a4.05,4.05,0,1,0-5.73-5.73Z" style="fill:#fff"></path></g></g></svg>
